<?xml version="1.0" standalone="no"?>
<!DOCTYPE svg PUBLIC "-//W3C//DTD SVG 1.1//EN" "http://www.w3.org/Graphics/SVG/1.1/DTD/svg11.dtd" >
<svg>
<metadata>
Created by FontForge 20090622 at Mon Nov 12 04:52:43 2018
 By ffonts
Vanlose BookType &#194;&#169; (Martin S&#195;&#184;rensen). 2014. All Rights Reserved
</metadata>
<defs>
<font id="VanloseBookType-Normal" horiz-adv-x="1014" >
  <font-face 
    font-family="Vanlose BookType"
    font-weight="400"
    font-stretch="normal"
    units-per-em="2048"
    panose-1="2 0 5 0 0 0 0 0 0 0"
    ascent="1638"
    descent="-410"
    x-height="796"
    cap-height="1174"
    bbox="-206 -431 1900.11 1661"
    underline-thickness="150"
    underline-position="-142"
    unicode-range="U+001D-U+F002"
  />
<missing-glyph horiz-adv-x="1024" 
 />
    <glyph glyph-name=".notdef" horiz-adv-x="1024" 
 />
    <glyph glyph-name=".null" horiz-adv-x="0" 
 />
    <glyph glyph-name=".null" horiz-adv-x="0" 
 />
    <glyph glyph-name="nonmarkingreturn" horiz-adv-x="508" 
 />
    <glyph glyph-name="space" unicode=" " horiz-adv-x="604" 
 />
    <glyph glyph-name="space" unicode="&#xa0;" horiz-adv-x="604" 
 />
    <glyph glyph-name="exclam" unicode="!" horiz-adv-x="596" 
d="M188 1176l44 -888h93l44 888h-181zM195 0h167v167h-167v-167z" />
    <glyph glyph-name="quotedbl" unicode="&#x22;" horiz-adv-x="708" 
d="M96 1661l32 -485h97l32 484zM419 1661l32 -485h97l32 484z" />
    <glyph glyph-name="numbersign" unicode="#" horiz-adv-x="924" 
d="M581 796v-151h-270v151h-112v-151h-156v-112h156v-270h-156v-112h156v-151h112v151h270v-151h112v151h146v112h-146v270h146v112h-146v151h-112zM311 533h270v-270h-270v270z" />
    <glyph glyph-name="dollar" unicode="$" horiz-adv-x="707" 
d="M380 521q113 -62 113 -160q0 -126 -113 -156v316zM269 974v-265q-93 57 -93 141q0 97 93 124zM561 540q-53 58 -181 114v329q86 -6 167 -32l35 103q-110 40 -202 46v72h-111v-78q-110 -22 -170 -103q-52 -69 -52 -156q0 -89 60 -154q52 -57 162 -108v-374
q-136 12 -208 58l-34 -107q72 -58 242 -71v-79h111v82q108 15 169 78q72 74 72 211q0 103 -60 169z" />
    <glyph glyph-name="percent" unicode="%" horiz-adv-x="1410" 
d="M178 996q-28 -65 -28 -160q0 -85 24 -147q26 -69 68 -69q39 0 65 60q28 63 28 157q0 87 -25 150q-26 70 -67 70q-38 0 -65 -61zM78 609q-52 94 -52 228q0 133 51 227q61 111 168 111q105 0 164 -108q49 -90 49 -220q0 -139 -55 -237q-62 -108 -164 -108t-161 107z
M1038 499q-28 -65 -28 -159q0 -85 24 -147q26 -69 68 -69q39 0 65 60q28 63 28 157q0 86 -25 150q-26 69 -67 69q-39 0 -65 -61zM938 113q-52 94 -52 228q0 133 51 226q61 112 168 112q105 0 164 -108q49 -90 49 -220q0 -139 -56 -237q-61 -108 -163 -108q-103 0 -161 107z
M506 0l452 1165h-132l-452 -1165h132z" />
    <glyph glyph-name="ampersand" unicode="&#x26;" horiz-adv-x="1032" 
d="M399 128q-58 0 -109 17q-54 17 -88 47q-17 15 -30 33q-4 7 -9 18l-5 13q-2 5 -4 12q-14 48 1 93q14 45 57 92q34 38 91 83l47 36l287 -370q-11 -8 -22 -15q-98 -62 -216 -59zM275 1083q10 20 29 40q20 20 40 32q46 26 97 19q51 -5 92 -41q38 -33 52 -81q12 -47 -3 -93
q-3 -9 -9 -22l-4 -8l-1 -2v0l-2 -3l-7 -12q-14 -23 -33 -47q-33 -42 -84 -88l-53 -44l-5 6q-29 35 -39 48q-81 109 -89 203q-3 53 19 93zM790 -3h170l-150 194q38 45 66 97q63 116 83 271l-134 14q-8 -128 -58 -228q-14 -28 -34 -56q-71 91 -64 82l-162 205l-52 64
q33 25 57 46q60 50 100 97q25 29 44 59l9 16l2 4l3 5l4 7q10 20 16 38q14 40 15 80q1 43 -12 83q-25 77 -95 130q-64 48 -145 58q-83 10 -157 -27q-36 -17 -65 -44q-32 -27 -53 -60q-47 -70 -44 -157q2 -71 35 -149q27 -61 72 -124l46 -59l-48 -36q-66 -52 -104 -91
q-61 -62 -87 -123q-17 -39 -21 -81q-4 -40 5 -82q2 -11 4 -20l3 -10l2 -9q6 -19 18 -41q19 -37 53 -67q56 -52 139 -76q71 -20 149 -17q149 7 279 86q16 10 32 22z" />
    <glyph glyph-name="quotesingle" unicode="'" horiz-adv-x="383" 
d="M85 1661l32 -485h97l32 484z" />
    <glyph glyph-name="parenleft" unicode="(" horiz-adv-x="651" 
d="M651 -425q-188 271 -273 600q-197 761 289 1439h-153q-460 -699 -257 -1476q79 -300 244 -563h150z" />
    <glyph glyph-name="parenright" unicode=")" horiz-adv-x="660" 
d="M-38 -424q188 271 273 599q197 759 -288 1436h152q460 -698 257 -1473q-79 -300 -243 -562h-151z" />
    <glyph glyph-name="asterisk" unicode="*" horiz-adv-x="654" 
d="M182 1524l-97 -96l90 -69l-167 19v-160l168 20l-91 -70l97 -96l71 89l-20 -165h163l-20 166l71 -90l97 96l-91 70l168 -20v160l-167 -19l90 69l-97 96l-71 -90l20 166h-163l20 -165z" />
    <glyph glyph-name="plus" unicode="+" horiz-adv-x="1091" 
d="M454 501h-350v140h350v369l1 1h139v-370h349l1 -1v-139h-350v-370h-140v370z" />
    <glyph glyph-name="comma" unicode="," horiz-adv-x="584" 
d="M180 201h200v-200q0 -138 -73 -188q-43 -28 -127 -28v79q55 0 76 26q25 30 25 111h-101v200z" />
    <glyph glyph-name="hyphen" unicode="-" horiz-adv-x="1159" 
d="M144 503h831v125h-831v-125z" />
    <glyph glyph-name="hyphen" unicode="&#xad;" horiz-adv-x="1159" 
d="M144 503h831v125h-831v-125z" />
    <glyph glyph-name="period" unicode="." horiz-adv-x="559" 
d="M178 0h200v200h-200v-200z" />
    <glyph glyph-name="slash" unicode="/" horiz-adv-x="784" 
d="M563 1174l-455 -1174h133l455 1174h-133z" />
    <glyph glyph-name="zero" unicode="0" horiz-adv-x="973" 
d="M673 265q57 131 56 320q0 190 -57 321q-63 145 -169 145q-107 0 -170 -145q-57 -131 -58 -321q-1 -189 56 -320q62 -146 171 -146q108 0 171 146zM232 183q-89 165 -88 402q1 239 91 403q100 183 271 183t269 -183q87 -164 83 -403q-4 -237 -95 -402q-101 -183 -267 -183
t-264 183z" />
    <glyph glyph-name="one" unicode="1" horiz-adv-x="595" 
d="M305 1175l-282 -118l47 -105l235 75v-1027h153v1175h-153z" />
    <glyph glyph-name="two" unicode="2" horiz-adv-x="894" 
d="M478 514q120 119 150 247q29 119 -27 206q-57 88 -176 106q-131 18 -296 -56l-52 114q215 103 395 74q163 -27 250 -151q85 -121 58 -279q-27 -170 -178 -314l-327 -327h534v-134h-663q-49 0 -74 47q-25 51 18 92z" />
    <glyph glyph-name="three" unicode="3" horiz-adv-x="811" 
d="M370 115q211 24 211 225q0 100 -52 163q-54 65 -146 68h-96v117h96q86 0 134 62q49 65 33 168q-19 109 -115 136q-112 32 -327 -49q-24 57 -46 100q244 106 411 68q173 -40 215 -223q25 -111 -15 -193q-39 -84 -141 -126q93 -30 151 -109q60 -81 60 -186
q0 -170 -100 -259q-82 -73 -224 -85q-112 -9 -237 18q-106 25 -137 50l36 99q132 -62 289 -44z" />
    <glyph glyph-name="four" unicode="4" horiz-adv-x="945" 
d="M627 456v558l-388 -558h388zM627 0v334h-466q-48 0 -70 44q-21 44 7 80l505 716h174v-718h164v-122h-164v-334h-150z" />
    <glyph glyph-name="five" unicode="5" horiz-adv-x="871" 
d="M795 1042h-449l-36 -291q51 1 94 0q231 -6 340 -143q82 -103 74 -240q-7 -143 -90 -235q-73 -81 -194 -114q-110 -29 -235 -14q-119 15 -209 65l17 123q185 -93 368 -54q90 18 143 69q58 56 63 143q7 128 -60 191q-83 79 -294 78q-67 0 -159 -1l74 555h553v-132z" />
    <glyph glyph-name="six" unicode="6" horiz-adv-x="987" 
d="M712 582q-69 70 -177 70q-77 0 -146 -61q-77 -68 -92 -175q-16 -118 60 -208q77 -89 192 -89q99 0 166 75q67 77 67 197t-70 191zM812 1046q-215 0 -370 -143q-140 -128 -140 -267q17 33 61 66q87 67 219 67q151 0 246 -101q95 -102 96 -266q1 -184 -100 -292
q-102 -110 -279 -110q-400 0 -400 484q0 263 146 453q180 235 521 235v-126z" />
    <glyph glyph-name="seven" unicode="7" horiz-adv-x="834" 
d="M46 1178v-132h576v-4l-511 -1042h165l564 1178h-794z" />
    <glyph glyph-name="eight" unicode="8" horiz-adv-x="956" 
d="M336 173q-69 62 -72 155q-3 125 71 198q65 64 176 74q110 -10 176 -74q73 -73 70 -198q-3 -93 -72 -155q-70 -62 -174 -61q-105 -1 -175 61zM367 1025q49 42 144 42q94 0 144 -42q48 -41 48 -116q0 -99 -61 -151q-50 -42 -131 -47q-82 5 -131 47q-62 52 -62 151
q0 75 49 116zM827 549q-59 75 -153 106q160 60 160 254q0 128 -87 199q-86 70 -236 70v0q-151 0 -236 -70q-87 -71 -87 -199q0 -194 160 -254q-95 -31 -154 -106q-70 -90 -70 -224q0 -156 104 -241q102 -84 283 -84v0q181 0 282 84q104 85 104 241q0 134 -70 224z" />
    <glyph glyph-name="nine" unicode="9" horiz-adv-x="922" 
d="M307 590q65 -69 169 -69q73 0 138 61q74 68 88 174q15 118 -58 208t-182 90q-95 0 -158 -75q-64 -78 -64 -198q0 -119 67 -191zM211 126q205 0 353 143q133 129 133 268q-17 -34 -58 -67q-83 -66 -208 -66q-144 0 -234 101q-91 101 -92 266q-1 184 95 292q97 110 266 110
q380 0 380 -484q0 -263 -138 -453q-172 -236 -497 -236v126z" />
    <glyph glyph-name="colon" unicode=":" horiz-adv-x="396" 
d="M79 0h199v199h-199v-199zM79 598h199v198h-199v-198z" />
    <glyph glyph-name="semicolon" unicode=";" horiz-adv-x="393" 
d="M77 599h197v196h-197v-196zM77 195h197v-196q0 -135 -72 -184q-42 -28 -125 -28v78q54 0 75 24q23 31 23 110h-98v196z" />
    <glyph glyph-name="semicolon" unicode="&#x37e;" horiz-adv-x="393" 
d="M77 599h197v196h-197v-196zM77 195h197v-196q0 -135 -72 -184q-42 -28 -125 -28v78q54 0 75 24q23 31 23 110h-98v196z" />
    <glyph glyph-name="less" unicode="&#x3c;" horiz-adv-x="895" 
d="M795 956l-768 -292v-169l768 -302v146l-600 246l600 222v149z" />
    <glyph glyph-name="equal" unicode="=" horiz-adv-x="785" 
d="M59 685h633v114h-633v-114zM59 397h633v114h-633v-114z" />
    <glyph glyph-name="greater" unicode="&#x3e;" horiz-adv-x="884" 
d="M61 953v-147l591 -219l-591 -242v-143l756 297v167z" />
    <glyph glyph-name="question" unicode="?" horiz-adv-x="643" 
d="M151 284q-1 132 30 207q37 89 138 158q150 103 127 248q-12 74 -60 115q-42 36 -106 40q-130 9 -231 -90q-45 39 -82 80q58 74 159 109q98 33 200 20q106 -14 175 -75q77 -67 88 -174q12 -117 -33 -196q-38 -68 -156 -162q-94 -75 -123 -120q-36 -58 -38 -160h-88zM278 0
h-164v165h164v-165z" />
    <glyph glyph-name="at" unicode="@" horiz-adv-x="2013" 
d="M1160 254q-31 -83 -94 -126q-56 -39 -123 -39q-60 0 -100 34q-46 39 -46 106q0 110 103 145q94 31 260 -5v-115zM1485 1492q-360 209 -796 60q-340 -116 -502 -470q-152 -330 -88 -724q78 -483 474 -684q189 -95 401 -95q215 0 405 97l-57 112q-160 -82 -346 -82
q-186 -1 -346 80q-339 172 -407 592q-55 336 70 629q137 324 436 426q180 62 363 49q184 -14 329 -98q269 -156 332 -493q30 -155 10 -304q-23 -178 -111 -290q-78 -98 -187 -135q-131 -45 -166 82v245q0 189 -114 279q-148 115 -459 28q18 -55 27 -100q284 86 373 -62
q44 -74 31 -165q-213 49 -344 -20q-133 -70 -133 -237q0 -68 37 -126q39 -59 103 -87q156 -67 343 76q24 18 55 15q29 -3 49 -23q103 -101 264 -25q125 58 219 177q209 264 127 696q-75 393 -392 577z" />
    <glyph glyph-name="A" unicode="A" horiz-adv-x="1010" 
d="M386 1176l-381 -1176h158l121 366h408l123 -366h163l-396 1176h-196zM482 1045l178 -555h-343z" />
    <glyph glyph-name="B" unicode="B" horiz-adv-x="873" 
d="M215 118q211 -18 306 10q136 38 136 176q0 105 -66 161q-56 47 -142 47h-234v-394zM215 627h171q113 0 175 73q54 64 54 160q0 106 -58 164q-60 60 -174 60q-119 0 -168 -11v-446zM61 1174q192 23 298 23q396 0 396 -329q0 -94 -41 -170q-45 -84 -127 -118
q90 -20 146 -93q58 -75 58 -175q0 -204 -133 -275q-96 -51 -315 -46q-206 4 -282 13v1170z" />
    <glyph glyph-name="C" unicode="C" horiz-adv-x="972" 
d="M364 984q193 116 520 34q10 44 32 125q-441 103 -691 -89q-107 -82 -163 -210q-53 -121 -53 -263q0 -141 53 -261q56 -127 163 -208q250 -189 691 -85q-22 80 -32 124q-327 -82 -520 35q-193 116 -194 399q1 282 194 399z" />
    <glyph glyph-name="D" unicode="D" horiz-adv-x="1085" 
d="M223 116q49 -7 147 -7q233 0 359 132q125 132 125 375q1 215 -115 336q-120 124 -346 124q-101 0 -170 -16v-944zM78 1172q147 26 308 26q226 0 382 -102q226 -147 226 -475q0 -377 -245 -534q-159 -102 -408 -102q-146 0 -263 14v1173z" />
    <glyph glyph-name="E" unicode="E" horiz-adv-x="837" 
d="M79 1176v-1176h697v127h-543v352l436 2v123h-436v444h543v128h-697z" />
    <glyph glyph-name="F" unicode="F" horiz-adv-x="801" 
d="M84 1176v-1176h154v477l447 2v125h-447v444h543v128h-697z" />
    <glyph glyph-name="G" unicode="G" horiz-adv-x="1017" 
d="M915 45q-157 -53 -312 -55q-165 -2 -294 57q-141 63 -218 191q-86 142 -86 351q0 288 203 458q224 187 593 120q-4 -27 -24 -128q-258 46 -433 -70q-185 -123 -185 -373q-1 -269 176 -397q162 -119 401 -75q49 9 49 74v216q0 29 -16 49q-20 24 -59 24h-109v124h314v-566z
" />
    <glyph glyph-name="H" unicode="H" horiz-adv-x="1132" 
d="M996 1175h-148v-568h-614v568h-148v-1175h148v482l614 1v-483h148v1175z" />
    <glyph glyph-name="I" unicode="I" horiz-adv-x="377" 
d="M85 1174h153v-1174h-153v1174z" />
    <glyph glyph-name="J" unicode="J" horiz-adv-x="839" 
d="M29 140q185 0 264 15q113 22 182 92q78 78 100 174q14 64 13 238v376h-559v140h699v-516q1 -196 -18 -278q-30 -128 -136 -234q-98 -98 -251 -129q-92 -18 -294 -18v140z" />
    <glyph glyph-name="K" unicode="K" horiz-adv-x="878" 
d="M685 1174l-461 -593v593h-140v-1174h140v328l82 115l378 -443h169l-467 561l467 613h-168z" />
    <glyph glyph-name="L" unicode="L" horiz-adv-x="822" 
d="M80 1175v-1175h697v127h-544v1048h-153z" />
    <glyph glyph-name="M" unicode="M" horiz-adv-x="1383" 
d="M960 1173l-289 -962l-302 962h-244l-82 -1173h152l66 1022l319 -1022h174l302 1022l82 -1022h154l-93 1173h-239z" />
    <glyph glyph-name="N" unicode="N" horiz-adv-x="1117" 
d="M853 1173v-943l-617 943h-155v-1173h132v956l630 -956h142v1173h-132z" />
    <glyph glyph-name="O" unicode="O" horiz-adv-x="1086" 
d="M762 261q86 134 85 327q-1 194 -86 328q-95 149 -255 149t-256 -149q-86 -134 -87 -328q-1 -193 84 -327q94 -149 257 -149t258 149zM140 177q-119 169 -118 411q0 244 122 412q136 187 367 187t362 -187q117 -168 112 -412q-4 -242 -128 -411q-136 -187 -360 -187
t-357 187z" />
    <glyph glyph-name="P" unicode="P" horiz-adv-x="851" 
d="M225 1060q106 23 211 5q209 -35 205 -237q-4 -167 -208 -214q-120 -28 -208 -14v460zM225 0v450q242 0 392 95q162 102 169 287q0 240 -187 322q-169 74 -499 25h-17v-1179h142z" />
    <glyph glyph-name="Q" unicode="Q" horiz-adv-x="1071" 
d="M237 257q-85 135 -84 329q2 194 88 328q96 149 256 149q116 0 200 -80q76 -73 114 -198q35 -119 26 -250q-8 -134 -60 -237l-172 249h-166l-1 -1l252 -365q-83 -73 -194 -73q-164 0 -259 149zM981 1l-125 182q88 126 113 300q25 171 -19 329q-46 166 -154 265
q-121 108 -294 108q-232 0 -368 -187q-122 -168 -122 -412q-1 -243 119 -413q132 -187 357 -187q155 0 272 93l53 -78h168z" />
    <glyph glyph-name="R" unicode="R" horiz-adv-x="855" 
d="M225 1055q105 23 209 6q208 -35 204 -237q-4 -165 -207 -212q-120 -28 -207 -14zM596 1149q-167 74 -496 25h-17v-1173h141v462l180 2l237 -465l141 1l-260 497q251 95 261 331q0 239 -187 320z" />
    <glyph glyph-name="S" unicode="S" horiz-adv-x="767" 
d="M160 157q91 -26 170 -28q100 -3 157 37q69 47 69 153q0 84 -66 142q-44 37 -150 83q-150 66 -219 133q-82 81 -82 193q0 72 33 138q37 73 106 117q174 109 481 -1l-41 -120q-127 40 -226 41q-205 3 -204 -164q2 -85 59 -131q37 -30 174 -89q151 -66 213 -133
q71 -77 71 -197q0 -168 -94 -255q-78 -72 -214 -84q-111 -9 -233 22q-106 26 -149 61l39 124q32 -21 106 -42z" />
    <glyph glyph-name="T" unicode="T" horiz-adv-x="883" 
d="M1 1173v-135h379v-1038h149v1038h379v135h-907z" />
    <glyph glyph-name="U" unicode="U" horiz-adv-x="1089" 
d="M810 1175v-737q0 -160 -54 -225q-66 -80 -245 -81q-179 1 -245 81q-54 65 -54 225v737h-155v-700q0 -260 95 -369q103 -116 359 -116q255 0 358 116q96 109 96 369v700h-155z" />
    <glyph glyph-name="V" unicode="V" horiz-adv-x="977" 
d="M810 1175l-316 -1018l-317 1018h-175l375 -1175h229l375 1175h-171z" />
    <glyph glyph-name="W" unicode="W" horiz-adv-x="1617" 
d="M1450 1175l-316 -1018l-317 1018h-7l-316 -1018l-317 1018h-175l375 -1175h229l205 645l206 -645h229l375 1175h-171z" />
    <glyph glyph-name="X" unicode="X" horiz-adv-x="1015" 
d="M835 1175l-317 -463l-317 463h-170l402 -587l-402 -588h170l317 464l317 -464h170l-402 588l402 587h-170z" />
    <glyph glyph-name="Y" unicode="Y" horiz-adv-x="810" 
d="M738 1176l-291 -567l-292 567h-165l374 -732v-444h159v445l374 731h-159z" />
    <glyph glyph-name="Z" unicode="Z" horiz-adv-x="917" 
d="M51 1046v129l848 -1q-592 -869 -625 -921q-25 -39 -5 -84t66 -42h519v-127h-782q-55 0 -73 45q-17 42 8 79q29 46 629 923z" />
    <glyph glyph-name="bracketleft" unicode="[" horiz-adv-x="499" 
d="M0 1612v-2033h411v126h-285v1782h285v125h-411z" />
    <glyph glyph-name="backslash" unicode="\" horiz-adv-x="600" 
d="M0 1176l456 -1176h133l-456 1176h-133z" />
    <glyph glyph-name="bracketright" unicode="]" horiz-adv-x="598" 
d="M0 1613v-126h287v-1787h-287v-126h412v2039h-412z" />
    <glyph glyph-name="asciicircum" unicode="^" horiz-adv-x="1106" 
d="M502 1614l-277 -276h163l114 113l113 -113h163z" />
    <glyph glyph-name="underscore" unicode="_" horiz-adv-x="1296" 
d="M0 -227h1299v127h-1299v-127z" />
    <glyph glyph-name="grave" unicode="`" horiz-adv-x="1024" 
d="M295 1398l-76 -163l508 -188l46 98z" />
    <glyph glyph-name="a" unicode="a" horiz-adv-x="792" 
d="M539 375q-163 34 -257 0q-104 -37 -106 -151q-1 -63 49 -99q43 -31 102 -31q70 0 111 13q55 18 101 68v200zM677 0h-138v46q-59 -40 -140 -53q-81 -14 -155 4q-80 19 -128 69q-53 56 -56 140q-7 175 130 251q133 73 345 24q13 81 -30 145q-88 127 -371 42q-9 43 -26 99
q310 87 455 -19q114 -82 114 -266v-482z" />
    <glyph glyph-name="b" unicode="b" horiz-adv-x="916" 
d="M211 626q-2 0 20 6q23 7 47 12q79 17 143 10q205 -20 204 -261q-1 -225 -207 -272q-103 -23 -206 -2zM70 1176v-1176h17q357 -44 519 47q164 92 164 342q0 274 -163 359q-129 67 -396 24v404h-141z" />
    <glyph glyph-name="c" unicode="c" horiz-adv-x="732" 
d="M367 670q119 47 289 8q22 104 26 121q-334 53 -494 -80q-128 -107 -128 -318t128 -318q160 -133 494 -80q-4 17 -26 121q-159 -38 -283 9q-166 63 -168 268q2 207 162 269z" />
    <glyph glyph-name="d" unicode="d" horiz-adv-x="868" 
d="M583 119q-103 -21 -206 2q-206 47 -207 272q-1 241 204 261q64 7 143 -10q24 -5 47 -12q22 -6 20 -6zM584 1176v-404q-267 43 -396 -24q-163 -85 -163 -359q0 -250 164 -342q162 -91 519 -47h17v1176h-141z" />
    <glyph glyph-name="e" unicode="e" horiz-adv-x="802" 
d="M619 451q0 115 -66 180q-59 58 -144 56q-85 -3 -145 -62q-65 -67 -65 -174h420zM647 78q14 -47 18 -59q-273 -69 -437 26q-171 99 -171 354q0 200 110 307q99 97 258 97q166 0 249 -112q90 -119 64 -342h-543q0 -77 43 -133q38 -51 107 -79q64 -27 141 -27q76 0 142 26
q7 -18 19 -58z" />
    <glyph glyph-name="f" unicode="f" horiz-adv-x="565" 
d="M153 0v673h-109v117h109q0 173 84 271q96 111 293 111v-116q-124 0 -181 -68q-54 -65 -54 -198h235v-117h-235v-673h-142z" />
    <glyph glyph-name="g" unicode="g" horiz-adv-x="882" 
d="M419 677q104 25 209 6l1 -530q-150 -24 -212 -14q-208 33 -208 267q0 222 210 271zM754 803q-689 86 -689 -392q0 -258 166 -347q116 -62 397 -62v-60q-11 -163 -154 -221q-90 -36 -273 -36v-110q282 -2 411 74q159 93 159 331v823h-17z" />
    <glyph glyph-name="h" unicode="h" horiz-adv-x="930" 
d="M113 1177h146v-462q35 47 124 72q94 27 186 9q107 -21 170 -99q74 -91 74 -249v-448h-146v443q0 110 -64 172q-57 56 -140 54q-83 -1 -140 -59q-64 -64 -64 -168v-442h-146v1177z" />
    <glyph glyph-name="i" unicode="i" horiz-adv-x="377" 
d="M111 804h146v-804h-146v804zM181 906q-39 0 -64 26q-24 26 -24 64t25 64q26 27 66 27t65 -26t25 -65t-25 -64q-26 -26 -68 -26z" />
    <glyph glyph-name="j" unicode="j" horiz-adv-x="422" 
d="M286 924q27 28 27 70q0 43 -27 71q-28 29 -71 29q-44 0 -73 -30q-27 -28 -27 -70t26 -70q27 -28 70 -28q47 0 75 28zM146 -5q0 -180 -75 -246q-75 -67 -277 -67v-113q269 0 382 99q111 97 111 327v806h-141v-806z" />
    <glyph glyph-name="k" unicode="k" horiz-adv-x="844" 
d="M112 1177v-1177h144v312l119 98l293 -409h141l-340 492l340 303l-163 1l-390 -323v703h-144z" />
    <glyph glyph-name="l" unicode="l" horiz-adv-x="379" 
d="M114 1169h145v-1169h-145v1169z" />
    <glyph glyph-name="m" unicode="m" horiz-adv-x="1478" 
d="M627 781q-69 34 -153 32q-78 -2 -142 -33q-65 -31 -89 -78v101h-147v-803h147v445q0 105 64 169q59 58 142 60q85 2 143 -55q64 -63 64 -173v-446h147v445q0 105 64 169q59 58 143 60t142 -55q64 -63 64 -173v-446h147v451q0 156 -81 251q-71 84 -187 105
q-107 19 -206 -20q-101 -40 -139 -120q-44 77 -123 114z" />
    <glyph glyph-name="n" unicode="n" horiz-adv-x="914" 
d="M96 799h146v-100q31 60 121 91q91 32 186 13q107 -21 172 -102q75 -93 75 -252v-449h-146v444q0 110 -64 173q-57 56 -140 54q-83 -1 -140 -59q-64 -64 -64 -169v-443h-146v799z" />
    <glyph glyph-name="o" unicode="o" horiz-adv-x="836" 
d="M257 205q-50 81 -50 198q1 117 51 199q57 90 151 90q95 0 151 -90q51 -81 51 -198q1 -118 -49 -199q-56 -90 -153 -90q-96 0 -152 90zM150 688q-87 -117 -89 -284q-1 -169 85 -285q97 -129 262 -129q166 0 263 129q87 116 86 285q-1 167 -88 284q-96 129 -259 129
t-260 -129z" />
    <glyph glyph-name="p" unicode="p" horiz-adv-x="890" 
d="M242 681q104 22 207 -2q208 -47 209 -273q0 -185 -157 -245q-81 -31 -259 -31v551zM242 -424v428q275 0 396 66q165 91 165 341q0 245 -164 339q-168 97 -537 51l-2 -1225h142z" />
    <glyph glyph-name="q" unicode="q" horiz-adv-x="881" 
d="M414 678q103 24 207 2v-551q-178 0 -258 31q-158 60 -157 245q0 226 208 273zM763 -425l-1 1225q-370 46 -538 -51q-164 -94 -164 -339q0 -250 166 -341q120 -66 395 -66v-428h142z" />
    <glyph glyph-name="r" unicode="r" horiz-adv-x="602" 
d="M541 650q-45 23 -97 22q-53 -2 -98 -28q-104 -62 -104 -201v-443h-146v800h146v-101q34 67 138 97q107 31 208 -3z" />
    <glyph glyph-name="s" unicode="s" horiz-adv-x="598" 
d="M44 52q129 -62 235 -62q99 0 163 42q92 61 92 201q0 88 -52 143q-44 47 -146 91q-77 34 -107 59q-34 30 -34 72q0 82 111 82q72 0 145 -24l40 116q-103 37 -187 37q-118 0 -187 -71q-59 -63 -59 -152q0 -84 64 -144q47 -44 145 -87q66 -29 92 -51q38 -32 38 -79
q0 -105 -122 -105q-76 0 -182 45z" />
    <glyph glyph-name="t" unicode="t" horiz-adv-x="592" 
d="M528 653v143h-234v206h-140v-206h-118v-143h118v-279q0 -374 374 -374v140q-113 0 -172 58q-62 59 -62 176v279h234z" />
    <glyph glyph-name="u" unicode="u" horiz-adv-x="912" 
d="M791 -1h-146v101q-31 -60 -121 -91q-92 -32 -188 -14q-108 22 -172 102q-76 94 -76 253v449h146v-445q0 -110 64 -172q58 -57 141 -55q84 2 142 60q64 63 64 169v443h146v-800z" />
    <glyph glyph-name="v" unicode="v" horiz-adv-x="821" 
d="M640 796l-232 -558l-231 558h-155l315 -796h138l316 796h-151z" />
    <glyph glyph-name="w" unicode="w" horiz-adv-x="1314" 
d="M1132 798l-232 -560l-232 560h-27l-232 -560l-232 560h-155l316 -798h139l176 444l176 -444h139l316 798h-152z" />
    <glyph glyph-name="x" unicode="x" horiz-adv-x="852" 
d="M640 800l-211 -282l-212 282h-176l300 -400l-300 -400h176l212 283l211 -283h176l-299 400l299 400h-176z" />
    <glyph glyph-name="y" unicode="y" horiz-adv-x="827" 
d="M644 800l-223 -593l-244 593h-155l322 -793l-63 -161q-29 -69 -69 -97q-49 -33 -142 -33v-140q129 0 211 52t129 164q47 111 384 1008h-150z" />
    <glyph glyph-name="z" unicode="z" horiz-adv-x="746" 
d="M108 0q-43 0 -62 34q-21 39 4 77l444 565l-409 -1v122l651 -2q-460 -590 -481 -623q-11 -18 -1 -37q8 -13 21 -13h2h414v-122h-583z" />
    <glyph glyph-name="braceleft" unicode="{" horiz-adv-x="700" 
d="M597 -425q-168 0 -250 83q-58 59 -74 163q-10 63 -8 204q4 195 -19 285q-39 150 -169 235l-77 50l75 53q124 88 164 239q24 89 26 281q2 215 43 300q71 143 289 143v-125q-138 0 -177 -74q-29 -55 -30 -245q-2 -191 -24 -289q-39 -169 -155 -279q123 -108 161 -280
q22 -100 18 -296q-4 -227 46 -278q45 -45 161 -45v-125z" />
    <glyph glyph-name="bar" unicode="|" horiz-adv-x="503" 
d="M199 1613v-2038h126v2038h-126z" />
    <glyph glyph-name="braceright" unicode="}" horiz-adv-x="790" 
d="M0 -424q168 0 250 83q58 59 74 163q10 63 7 204q-3 195 20 285q39 151 169 236l77 50l-75 53q-124 88 -165 239q-24 89 -25 282q-2 214 -43 299q-71 144 -289 144v-125q138 0 177 -74q29 -56 30 -245q2 -191 24 -290q39 -169 155 -279q-124 -108 -161 -280
q-22 -101 -18 -297q4 -227 -46 -278q-45 -45 -161 -45v-125z" />
    <glyph glyph-name="asciitilde" unicode="~" horiz-adv-x="791" 
d="M43 946q17 42 54 73q48 42 112 42q59 0 120 -28q37 -16 69 -16q47 0 66 47l104 -40q-17 -43 -55 -75q-49 -43 -115 -43q-55 0 -114 26q-39 18 -75 18q-44 0 -63 -45zM476 355q-168 35 -255 11q-103 -29 -105 -140q-1 -63 48 -98q42 -31 101 -31q70 0 111 13q54 18 100 67
v178zM614 3h-138v46q-59 -40 -139 -53q-81 -14 -154 4q-79 19 -127 69q-53 56 -56 140q-6 172 129 239q129 64 344 15q12 85 -31 154q-88 136 -369 51q-9 44 -26 99q309 86 453 -18q114 -82 114 -266v-480z" />
    <glyph glyph-name="exclamdown" unicode="&#xa1;" horiz-adv-x="301" 
d="M183 0l-46 887h-93l-42 -887h181zM173 1176l-168 -1l1 -167h167v168z" />
    <glyph glyph-name="cent" unicode="&#xa2;" horiz-adv-x="763" 
d="M190 542q38 63 109 94v-485q-70 30 -109 91q-39 63 -39 147q0 89 39 153zM543 39l-22 61l-11 33l-21 -2q-26 -3 -51 -3q-18 0 -39 2v539q21 3 39 3q26 0 53 -4l26 -2l3 25q4 37 14 77l7 28l-29 3q-43 5 -83 5q-14 0 -30 -1v73h-95v-85q-145 -31 -224 -134
q-80 -104 -80 -264q0 -140 85 -245q83 -104 219 -139v-85h95v71q12 -1 23 -1q51 0 102 10l31 6z" />
    <glyph glyph-name="sterling" unicode="&#xa3;" horiz-adv-x="901" 
d="M719 197q-115 -67 -187 -77q-45 -6 -123 14q-91 23 -158 23q99 112 93 240h142v92h-158q-16 51 -49 116h207v92h-256q-29 57 -37 90q-27 115 29 186q36 46 99 67q95 32 190 -2q103 -37 145 -134l108 48q-62 140 -209 195q-137 50 -271 5q-126 -42 -182 -148
q-56 -107 -24 -244q7 -29 21 -63h-99v-92h145q1 -1 2 -4q1 -2 2 -3q39 -73 54 -109h-203v-92h226q9 -145 -213 -280l47 -107q170 47 321 9q76 -19 120 -19q114 0 277 94z" />
    <glyph glyph-name="currency" unicode="&#xa4;" horiz-adv-x="961" 
d="M230 230q-71 70 -71 169q0 100 71 170q70 71 169 71q100 0 170 -71q71 -70 71 -170q0 -99 -71 -169q-70 -71 -170 -71q-99 0 -169 71zM679 604v0l120 120l-75 75l-120 -120q-91 67 -205 67q-113 0 -204 -67l-120 120l-75 -75l120 -120v0q-67 -91 -67 -205q0 -113 67 -204
l-120 -120l75 -75l120 120v0q91 -67 204 -67q114 0 205 67v0v0l120 -120l75 75l-120 120q67 91 67 204q0 114 -67 205z" />
    <glyph glyph-name="yen" unicode="&#xa5;" horiz-adv-x="1064" 
d="M727 1176l-283 -567l-279 567h-165l346 -704h-215v-97h230v-112h-230v-98h230v-165h158v165h236v98h-236v112h236v97h-223l354 704h-159z" />
    <glyph glyph-name="brokenbar" unicode="&#xa6;" horiz-adv-x="506" 
d="M202 1609v-552h99v552h-99zM202 552v-552h99v552h-99z" />
    <glyph glyph-name="section" unicode="&#xa7;" horiz-adv-x="952" 
d="M236 607q38 -19 81 -38q107 -47 151 -85q66 -57 66 -143q0 -80 -40 -128q-38 20 -84 40q-127 55 -177 99q-58 53 -58 130q0 85 61 125zM685 353q0 122 -72 199q-63 68 -215 134q-127 55 -177 100q-58 52 -58 129q0 163 217 157q109 -3 217 -39l42 121q-311 112 -486 1
q-141 -88 -141 -257q0 -126 104 -214q-92 -89 -92 -219q0 -114 83 -195q70 -68 222 -134q107 -47 151 -85q66 -57 66 -143q0 -197 -228 -192q-175 4 -279 71l-39 -125q43 -35 151 -62q123 -31 234 -22q138 12 217 85q95 88 95 257q0 127 -79 207q67 85 67 226z" />
    <glyph glyph-name="dieresis" unicode="&#xa8;" horiz-adv-x="1100" 
d="M343 1322q-25 -24 -59 -24q-35 0 -59 24q-25 25 -25 59q0 35 25 59q24 25 59 25q34 0 59 -25q24 -24 24 -59q0 -34 -24 -59zM760 1322q-25 -24 -59 -24q-35 0 -59 24q-25 25 -25 59q0 35 25 59q24 25 59 25q34 0 59 -25q24 -24 24 -59q0 -34 -24 -59z" />
    <glyph glyph-name="copyright" unicode="&#xa9;" horiz-adv-x="1993" 
d="M703 210q-178 127 -178 377q0 224 141 357q163 154 466 122q-14 -60 -19 -100q-212 24 -338 -84q-123 -103 -123 -291q0 -175 123 -276q127 -104 336 -89q22 -65 34 -95q-268 -46 -442 79zM398 1163q-235 -234 -235 -566t235 -566q234 -235 566 -235t566 235
q235 234 235 566t-235 566q-234 235 -566 235t-566 -235zM1440 1073q198 -197 198 -476t-198 -476q-197 -198 -476 -198t-476 198q-198 197 -198 476t198 476q197 198 476 198t476 -198z" />
    <glyph glyph-name="ordfeminine" unicode="&#xaa;" horiz-adv-x="648" 
 />
    <glyph glyph-name="guillemotleft" unicode="&#xab;" horiz-adv-x="904" 
d="M271 796l-271 -402l266 -394h136l-266 394l271 402h-136zM678 796l-271 -402l266 -394h136l-266 394l271 402h-136z" />
    <glyph glyph-name="logicalnot" unicode="&#xac;" 
d="M-4 499v-128h777v-218h128v346h-905z" />
    <glyph glyph-name="registered" unicode="&#xae;" horiz-adv-x="1674" 
d="M682 964q83 18 165 4q164 -27 161 -186q-3 -131 -163 -168q-95 -22 -164 -10zM975 1038q-132 58 -392 20h-13v-926h112v365l141 1l178 -366l111 1l-195 391q198 75 205 262q0 188 -147 252zM235 1169q-235 -234 -235 -566t235 -567t567 -235q331 0 566 235t235 567
t-235 566q-235 235 -566 235q-332 0 -567 -235zM1279 1080q198 -198 198 -477q0 -280 -198 -478t-477 -198q-280 0 -478 198t-198 478q0 279 198 477t478 198q279 0 477 -198z" />
    <glyph glyph-name="macron" unicode="&#xaf;" horiz-adv-x="1296" 
d="M0 1304h1299v127h-1299v-127z" />
    <glyph glyph-name="degree" unicode="&#xb0;" horiz-adv-x="678" 
d="M72 1224q-73 -73 -73 -176q0 -104 73 -177t176 -73q104 0 177 73t73 177q0 103 -73 176t-177 73q-103 0 -176 -73zM354 1154q44 -44 44 -106q0 -63 -44 -107q-43 -43 -106 -43q-62 0 -106 43q-44 44 -44 107q0 62 44 106q44 43 106 43q63 0 106 -43z" />
    <glyph glyph-name="plusminus" unicode="&#xb1;" 
d="M351 666h-350v140h350v369l1 1h139v-370h349l1 -1v-139h-350v-370h-140v370zM4 82h831v125h-831v-125z" />
    <glyph glyph-name="uni00B2" unicode="&#xb2;" 
 />
    <glyph glyph-name="uni00B3" unicode="&#xb3;" 
 />
    <glyph glyph-name="acute" unicode="&#xb4;" horiz-adv-x="1106" 
d="M314 1335l-35 76l370 196l59 -126z" />
    <glyph glyph-name="mu" unicode="&#xb5;" horiz-adv-x="868" 
d="M533 803v-477q0 -75 -61 -127q-56 -48 -133 -54q-80 -7 -133 36q-60 49 -60 145v477h-146v-1224h146v542q74 -105 189 -105q114 0 198 105v-116h145v798h-145z" />
    <glyph glyph-name="paragraph" unicode="&#xb6;" horiz-adv-x="1024" 
d="M853 1175h-512q-371 0 -338 -311q14 -139 107 -196q75 -46 230 -51v-617h141v1077h117v-1077h139v1077h116v98z" />
    <glyph glyph-name="periodcentered" unicode="&#xb7;" horiz-adv-x="508" 
d="M165 526h200v200h-200v-200z" />
    <glyph glyph-name="periodcentered" unicode="&#x2219;" horiz-adv-x="508" 
d="M165 526h200v200h-200v-200z" />
    <glyph glyph-name="cedilla" unicode="&#xb8;" horiz-adv-x="1024" 
d="M386 -405q-50 25 -87 69l85 72q29 -35 67 -48q33 -11 61 -1q34 12 36 50q1 39 -25 58q-16 12 -41 15l-50 5v50v134h111v-90q51 -19 81 -59q37 -49 35 -117q-2 -53 -31 -93q-30 -41 -79 -58q-30 -11 -63 -11q-51 0 -100 24z" />
    <glyph glyph-name="uni00B9" unicode="&#xb9;" 
 />
    <glyph glyph-name="ordmasculine" unicode="&#xba;" horiz-adv-x="718" 
 />
    <glyph glyph-name="guillemotright" unicode="&#xbb;" horiz-adv-x="944" 
d="M115 176h-14v37l205 266l-205 266v37h14l342 -303zM428 176h-14v37l205 266l-205 266v37h14l342 -303z" />
    <glyph glyph-name="onequarter" unicode="&#xbc;" horiz-adv-x="1539" 
d="M773 1159l-449 -1159h131l450 1159h-132zM171 444v581l-122 -39l-49 108l193 81h121v-731h-143zM1058 328v207l-145 -207h145zM1058 8v194h-242q-46 0 -66 41t7 75q15 20 300 425h143v-415h95v-126h-95v-194h-142z" />
    <glyph glyph-name="onehalf" unicode="&#xbd;" horiz-adv-x="1545" 
d="M772 1158l-449 -1158h132l449 1158h-132zM171 444v579l-122 -39l-49 108l193 82h121v-730h-143zM914 10q-49 0 -68 47q-17 43 18 77l214 206q56 56 73 114q14 48 -2 86q-25 63 -110 63q-56 0 -123 -31l-25 -11l-51 113l24 11q98 47 186 47q80 0 141 -38q60 -38 87 -105
q31 -76 6 -161q-26 -86 -100 -157l-132 -132h255v-129h-393z" />
    <glyph glyph-name="threequarters" unicode="&#xbe;" horiz-adv-x="1610" 
d="M91 448q-56 15 -75 31l-16 13l7 18q20 57 20 55l9 31l29 -13q52 -25 124 -25q125 0 125 104q0 42 -19 70q-24 33 -68 35h-82v123h83q34 0 53 22q23 28 15 78q-9 60 -79 60q-54 0 -138 -31l-25 -10l-10 25q-11 25 -26 56l-13 27l27 11q108 47 195 47q82 0 134 -40
q53 -40 70 -115q27 -122 -58 -189q90 -60 90 -171q0 -109 -64 -168q-65 -60 -183 -60q-62 0 -125 16zM533 0l455 1175h-133l-455 -1175h133zM1144 332l-1 211l-146 -211h147zM1144 8v196h-246q-46 0 -66 42t7 77l304 430h144v-421h97v-128h-97v-196h-143z" />
    <glyph glyph-name="questiondown" unicode="&#xbf;" horiz-adv-x="684" 
d="M444 509q1 -132 -30 -207q-37 -89 -139 -158q-150 -103 -127 -248q12 -74 60 -115q42 -36 106 -40q130 -9 231 89q45 -39 82 -80q-58 -74 -159 -108q-98 -33 -200 -20q-106 14 -175 75q-77 67 -88 174q-12 117 33 196q38 68 157 162q94 75 123 120q36 58 38 160h88z
M317 793h164v-165h-164v165z" />
    <glyph glyph-name="Agrave" unicode="&#xc0;" horiz-adv-x="1104" 
d="M674 1336l35 76l-370 196l-59 -126zM382 1176l-381 -1176h158l121 366h408l123 -366h163l-396 1176h-196zM478 1045l178 -555h-343z" />
    <glyph glyph-name="Aacute" unicode="&#xc1;" horiz-adv-x="1106" 
d="M314 1335l-35 76l370 196l59 -126zM381 1176l-381 -1176h158l121 366h408l123 -366h163l-396 1176h-196zM477 1045l178 -555h-343z" />
    <glyph glyph-name="Acircumflex" unicode="&#xc2;" horiz-adv-x="1106" 
d="M502 1614l-277 -276h163l114 113l113 -113h163zM381 1176l-381 -1176h158l121 366h408l123 -366h163l-396 1176h-196zM477 1045l178 -555h-343z" />
    <glyph glyph-name="Atilde" unicode="&#xc3;" horiz-adv-x="1106" 
d="M224 1384q17 42 54 73q48 42 112 42q59 0 120 -28q37 -16 69 -16q47 0 66 47l104 -40q-17 -43 -55 -75q-49 -43 -115 -43q-55 0 -114 26q-39 18 -75 18q-44 0 -63 -45zM381 1176l-381 -1176h158l121 366h408l123 -366h163l-396 1176h-196zM477 1045l178 -555h-343z" />
    <glyph glyph-name="Adieresis" unicode="&#xc4;" horiz-adv-x="1100" 
d="M343 1322q-25 -24 -59 -24q-35 0 -59 24q-25 25 -25 59q0 35 25 59q24 25 59 25q34 0 59 -25q24 -24 24 -59q0 -34 -24 -59zM760 1322q-25 -24 -59 -24q-35 0 -59 24q-25 25 -25 59q0 35 25 59q24 25 59 25q34 0 59 -25q24 -24 24 -59q0 -34 -24 -59zM381 1176
l-381 -1176h158l121 366h408l123 -366h163l-396 1176h-196zM477 1045l178 -555h-343z" />
    <glyph glyph-name="Aring" unicode="&#xc5;" horiz-adv-x="1054" 
d="M463 1334q-16 20 -16 47t16 46t38 19q23 0 38 -19q16 -19 16 -46t-16 -47q-15 -19 -38 -19q-22 0 -38 19zM383 1489q-48 -45 -48 -108q0 -64 48 -108q49 -45 118 -45t118 45q48 44 48 108q0 63 -48 108q-49 45 -118 45t-118 -45zM381 1176l-381 -1176h158l121 366h408
l123 -366h163l-396 1176h-196zM477 1045l178 -555h-343z" />
    <glyph glyph-name="AE" unicode="&#xc6;" horiz-adv-x="1300" 
d="M1258 1176l-854 -1l-404 -1175h158l121 363h424l123 -363h211v1h221v128h-313l-120 348h368v126h-411l-153 445h629v128zM492 1043l178 -556h-358z" />
    <glyph glyph-name="Ccedilla" unicode="&#xc7;" horiz-adv-x="928" 
d="M496 -405q-50 25 -87 69l85 72q29 -35 67 -48q33 -11 61 -1q34 12 36 50q1 39 -25 58q-16 12 -41 15l-50 5v50v134h111v-90q51 -19 81 -59q37 -49 35 -117q-2 -53 -31 -93q-30 -41 -79 -58q-30 -11 -63 -11q-51 0 -100 24zM355 984q193 116 520 34q10 44 32 125
q-441 103 -691 -89q-107 -82 -163 -210q-53 -121 -53 -263q0 -141 53 -261q56 -127 163 -208q250 -189 691 -85q-22 80 -32 124q-327 -82 -520 35q-193 116 -194 399q1 282 194 399z" />
    <glyph glyph-name="Egrave" unicode="&#xc8;" horiz-adv-x="754" 
d="M512 1336l35 76l-370 196l-59 -126zM0 1176v-1176h697v127h-543v352l436 2v123h-436v444h543v128h-697z" />
    <glyph glyph-name="Eacute" unicode="&#xc9;" horiz-adv-x="754" 
d="M161 1335l-35 76l370 196l59 -126zM0 1176v-1176h697v127h-543v352l436 2v123h-436v444h543v128h-697z" />
    <glyph glyph-name="Ecircumflex" unicode="&#xca;" horiz-adv-x="754" 
d="M325 1614l-277 -276h163l114 113l113 -113h163zM0 1176v-1176h697v127h-543v352l436 2v123h-436v444h543v128h-697z" />
    <glyph glyph-name="Edieresis" unicode="&#xcb;" horiz-adv-x="754" 
d="M180 1322q-25 -24 -59 -24q-35 0 -59 24q-25 25 -25 59q0 35 25 59q24 25 59 25q34 0 59 -25q24 -24 24 -59q0 -34 -24 -59zM597 1322q-25 -24 -59 -24q-35 0 -59 24q-25 25 -25 59q0 35 25 59q24 25 59 25q34 0 59 -25q24 -24 24 -59q0 -34 -24 -59zM0 1176v-1176h697
v127h-543v352l436 2v123h-436v444h543v128h-697z" />
    <glyph glyph-name="Igrave" unicode="&#xcc;" horiz-adv-x="367" 
d="M0 1174h153v-1174h-153v1174zM269 1336l35 76l-370 196l-59 -126z" />
    <glyph glyph-name="Iacute" unicode="&#xcd;" horiz-adv-x="367" 
d="M0 1174h153v-1174h-153v1174zM-63 1335l-35 76l370 196l59 -126z" />
    <glyph glyph-name="Icircumflex" unicode="&#xce;" horiz-adv-x="367" 
d="M0 1174h153v-1174h-153v1174zM96 1614l-277 -276h163l114 113l113 -113h163z" />
    <glyph glyph-name="Idieresis" unicode="&#xcf;" horiz-adv-x="429" 
d="M60 1174h153v-1174h-153v1174zM-16 1322q-25 -24 -59 -24q-35 0 -59 24q-25 25 -25 59q0 35 25 59q24 25 59 25q34 0 59 -25q24 -24 24 -59q0 -34 -24 -59zM401 1322q-25 -24 -59 -24q-35 0 -59 24q-25 25 -25 59q0 35 25 59q24 25 59 25q34 0 59 -25q24 -24 24 -59
q0 -34 -24 -59z" />
    <glyph glyph-name="Eth" unicode="&#xd0;" horiz-adv-x="1236" 
d="M282 121v402h315v125h-315v413q68 16 169 16q225 0 345 -125q115 -119 114 -334q0 -241 -125 -373t-357 -132q-98 0 -146 8zM137 1172v-524h-137v-125h137v-519q117 -14 262 -14q264 0 407 86q243 146 243 547q0 361 -225 495q-134 80 -380 80q-160 0 -307 -26z" />
    <glyph glyph-name="Ntilde" unicode="&#xd1;" horiz-adv-x="957" 
d="M161 1384q17 42 54 73q48 42 112 42q59 0 120 -28q37 -16 69 -16q47 0 66 47l104 -40q-17 -43 -55 -75q-49 -43 -115 -43q-55 0 -114 26q-39 18 -75 18q-44 0 -63 -45zM772 1173v-943l-617 943h-155v-1173h132v956l630 -956h142v1173h-132z" />
    <glyph glyph-name="Ograve" unicode="&#xd2;" horiz-adv-x="1085" 
d="M673 1336l35 76l-370 196l-59 -126zM741 261q85 134 84 327q0 194 -86 328q-95 149 -255 149t-255 -149q-86 -134 -88 -328q-1 -193 84 -327q95 -149 258 -149t258 149zM119 177q-120 169 -119 411q1 244 122 412q136 187 367 187t362 -187q118 -168 113 -412
q-5 -242 -128 -411q-137 -187 -361 -187t-356 187z" />
    <glyph glyph-name="Oacute" unicode="&#xd3;" horiz-adv-x="1085" 
d="M314 1335l-35 76l370 196l59 -126zM741 261q85 134 84 327q0 194 -86 328q-95 149 -255 149t-255 -149q-86 -134 -88 -328q-1 -193 84 -327q95 -149 258 -149t258 149zM119 177q-120 169 -119 411q1 244 122 412q136 187 367 187t362 -187q118 -168 113 -412
q-5 -242 -128 -411q-137 -187 -361 -187t-356 187z" />
    <glyph glyph-name="Ocircumflex" unicode="&#xd4;" horiz-adv-x="1085" 
d="M505 1614l-277 -276h163l114 113l113 -113h163zM741 261q85 134 84 327q0 194 -86 328q-95 149 -255 149t-255 -149q-86 -134 -88 -328q-1 -193 84 -327q95 -149 258 -149t258 149zM119 177q-120 169 -119 411q1 244 122 412q136 187 367 187t362 -187q118 -168 113 -412
q-5 -242 -128 -411q-137 -187 -361 -187t-356 187z" />
    <glyph glyph-name="Otilde" unicode="&#xd5;" horiz-adv-x="1085" 
d="M200 1384q17 42 54 73q48 42 112 42q59 0 120 -28q37 -16 69 -16q47 0 66 47l104 -40q-17 -43 -55 -75q-49 -43 -115 -43q-55 0 -114 26q-39 18 -75 18q-44 0 -63 -45zM741 261q85 134 84 327q0 194 -86 328q-95 149 -255 149t-255 -149q-86 -134 -88 -328
q-1 -193 84 -327q95 -149 258 -149t258 149zM119 177q-120 169 -119 411q1 244 122 412q136 187 367 187t362 -187q118 -168 113 -412q-5 -242 -128 -411q-137 -187 -361 -187t-356 187z" />
    <glyph glyph-name="Odieresis" unicode="&#xd6;" horiz-adv-x="1085" 
d="M343 1322q-25 -24 -59 -24q-35 0 -59 24q-25 25 -25 59q0 35 25 59q24 25 59 25q34 0 59 -25q24 -24 24 -59q0 -34 -24 -59zM760 1322q-25 -24 -59 -24q-35 0 -59 24q-25 25 -25 59q0 35 25 59q24 25 59 25q34 0 59 -25q24 -24 24 -59q0 -34 -24 -59zM741 261
q85 134 84 327q0 194 -86 328q-95 149 -255 149t-255 -149q-86 -134 -88 -328q-1 -193 84 -327q95 -149 258 -149t258 149zM119 177q-120 169 -119 411q1 244 122 412q136 187 367 187t362 -187q118 -168 113 -412q-5 -242 -128 -411q-137 -187 -361 -187t-356 187z" />
    <glyph glyph-name="multiply" unicode="&#xd7;" horiz-adv-x="904" 
d="M322 573l-243 252l101 97l243 -252l266 256h1l97 -100l-267 -257l242 -251v-2l-100 -96l-243 252l-267 -257l-97 101z" />
    <glyph glyph-name="Oslash" unicode="&#xd8;" horiz-adv-x="1049" 
d="M295 178l481 703q53 -105 63 -240q9 -134 -26 -254q-38 -127 -116 -201q-86 -82 -205 -82q-114 0 -197 74zM687 1000l-481 -703q-52 105 -60 241q-8 133 28 254q39 126 116 200q86 82 203 82q111 0 194 -74zM978 1177h-170l-43 -64q-114 85 -267 85q-178 0 -303 -112
q-113 -101 -163 -273q-47 -162 -25 -336q24 -179 113 -306l-116 -170h170l45 67q114 -88 265 -88q173 0 298 113q113 102 165 274q50 165 29 339q-22 179 -112 305z" />
    <glyph glyph-name="Ugrave" unicode="&#xd9;" horiz-adv-x="1032" 
d="M637 1336l35 76l-370 196l-59 -126zM753 1175v-737q0 -160 -54 -225q-66 -80 -245 -81q-179 1 -245 81q-54 65 -54 225v737h-155v-700q0 -260 95 -369q103 -116 359 -116q255 0 358 116q96 109 96 369v700h-155z" />
    <glyph glyph-name="Uacute" unicode="&#xda;" horiz-adv-x="1032" 
d="M276 1335l-35 76l370 196l59 -126zM753 1175v-737q0 -160 -54 -225q-66 -80 -245 -81q-179 1 -245 81q-54 65 -54 225v737h-155v-700q0 -260 95 -369q103 -116 359 -116q255 0 358 116q96 109 96 369v700h-155z" />
    <glyph glyph-name="Ucircumflex" unicode="&#xdb;" horiz-adv-x="1032" 
d="M433 1614l-277 -276h163l114 113l113 -113h163zM753 1175v-737q0 -160 -54 -225q-66 -80 -245 -81q-179 1 -245 81q-54 65 -54 225v737h-155v-700q0 -260 95 -369q103 -116 359 -116q255 0 358 116q96 109 96 369v700h-155z" />
    <glyph glyph-name="Udieresis" unicode="&#xdc;" horiz-adv-x="1032" 
d="M293 1322q-25 -24 -59 -24q-35 0 -59 24q-25 25 -25 59q0 35 25 59q24 25 59 25q34 0 59 -25q24 -24 24 -59q0 -34 -24 -59zM710 1322q-25 -24 -59 -24q-35 0 -59 24q-25 25 -25 59q0 35 25 59q24 25 59 25q34 0 59 -25q24 -24 24 -59q0 -34 -24 -59zM753 1175v-737
q0 -160 -54 -225q-66 -80 -245 -81q-179 1 -245 81q-54 65 -54 225v737h-155v-700q0 -260 95 -369q103 -116 359 -116q255 0 358 116q96 109 96 369v700h-155z" />
    <glyph glyph-name="Yacute" unicode="&#xdd;" horiz-adv-x="932" 
d="M276 1335l-35 76l370 196l59 -126zM748 1176l-291 -567l-292 567h-165l374 -732v-444h159v445l374 731h-159z" />
    <glyph glyph-name="Thorn" unicode="&#xde;" horiz-adv-x="702" 
d="M146 789q155 -13 246 -80q84 -61 84 -141q0 -79 -84 -140q-91 -65 -246 -79v440zM491 792q-125 107 -345 123v262h-146v-1177h146v224q220 15 345 122q110 94 110 222q0 129 -110 224z" />
    <glyph glyph-name="germandbls" unicode="&#xdf;" horiz-adv-x="798" 
d="M154 423v-423l-154 1v1172q667 135 667 -278q0 -122 -90 -209q-61 -60 -62 -60q-28 -33 -28 -68q0 -33 32 -69q14 -15 72 -63q107 -91 117 -177q19 -294 -372 -257v112q252 -44 235 138q-5 46 -36 87q-17 21 -67 67q-92 85 -92 166q0 54 25 96q15 25 56 67q81 84 81 170
q0 126 -89 171q-94 47 -295 7v-650z" />
    <glyph glyph-name="agrave" unicode="&#xe0;" horiz-adv-x="791" 
d="M522 956l35 76l-372 198l-59 -127zM479 375q-162 34 -257 0q-104 -37 -105 -151q-1 -63 49 -99q42 -31 102 -31q70 0 111 13q54 18 100 68v200zM618 0h-139v46q-58 -40 -139 -53q-81 -14 -156 4q-79 19 -127 69q-54 56 -57 140q-6 175 130 251q133 73 346 24
q13 81 -31 145q-87 127 -370 42q-9 43 -26 99q310 87 455 -19q114 -82 114 -266v-482z" />
    <glyph glyph-name="aacute" unicode="&#xe1;" horiz-adv-x="791" 
d="M161 986l-36 77l372 197l60 -127zM479 375q-162 34 -257 0q-104 -37 -105 -151q-1 -63 49 -99q42 -31 102 -31q70 0 111 13q54 18 100 68v200zM618 0h-139v46q-58 -40 -139 -53q-81 -14 -156 4q-79 19 -127 69q-54 56 -57 140q-6 175 130 251q133 73 346 24
q13 81 -31 145q-87 127 -370 42q-9 43 -26 99q310 87 455 -19q114 -82 114 -266v-482z" />
    <glyph glyph-name="acircumflex" unicode="&#xe2;" horiz-adv-x="791" 
d="M325 1177l-277 -276h163l114 113l113 -113h163zM479 375q-162 34 -257 0q-104 -37 -105 -151q-1 -63 49 -99q42 -31 102 -31q70 0 111 13q54 18 100 68v200zM618 0h-139v46q-58 -40 -139 -53q-81 -14 -156 4q-79 19 -127 69q-54 56 -57 140q-6 175 130 251q133 73 346 24
q13 81 -31 145q-87 127 -370 42q-9 43 -26 99q310 87 455 -19q114 -82 114 -266v-482z" />
    <glyph glyph-name="atilde" unicode="&#xe3;" horiz-adv-x="791" 
d="M43 946q17 42 54 73q48 42 112 42q59 0 120 -28q37 -16 69 -16q47 0 66 47l104 -40q-17 -43 -55 -75q-49 -43 -115 -43q-55 0 -114 26q-39 18 -75 18q-44 0 -63 -45zM479 375q-162 34 -257 0q-104 -37 -105 -151q-1 -63 49 -99q42 -31 102 -31q70 0 111 13q54 18 100 68
v200zM618 0h-139v46q-58 -40 -139 -53q-81 -14 -156 4q-79 19 -127 69q-54 56 -57 140q-6 175 130 251q133 73 346 24q13 81 -31 145q-87 127 -370 42q-9 43 -26 99q310 87 455 -19q114 -82 114 -266v-482z" />
    <glyph glyph-name="adieresis" unicode="&#xe4;" horiz-adv-x="791" 
d="M146 931q-25 -25 -60 -25q-36 0 -61 25t-25 60q0 34 25 59t61 25q35 0 60 -25t25 -59q0 -35 -25 -60zM575 931q-25 -25 -61 -25q-35 0 -60 25t-25 60q0 34 25 59t60 25q36 0 61 -25t25 -59q0 -35 -25 -60zM479 375q-162 34 -257 0q-104 -37 -105 -151q-1 -63 49 -99
q42 -31 102 -31q70 0 111 13q54 18 100 68v200zM618 0h-139v46q-58 -40 -139 -53q-81 -14 -156 4q-79 19 -127 69q-54 56 -57 140q-6 175 130 251q133 73 346 24q13 81 -31 145q-87 127 -370 42q-9 43 -26 99q310 87 455 -19q114 -82 114 -266v-482z" />
    <glyph glyph-name="aring" unicode="&#xe5;" horiz-adv-x="782" 
d="M268 974q-16 19 -16 46t16 46t38 19q23 0 39 -19q15 -19 15 -46t-15 -46q-16 -19 -39 -19q-22 0 -38 19zM190 1127q-49 -44 -49 -107t49 -108q48 -44 116 -44q69 0 117 44q49 45 49 108t-49 107q-48 45 -117 45q-68 0 -116 -45zM479 375q-162 34 -257 0
q-104 -37 -105 -151q-1 -63 49 -99q42 -31 102 -31q70 0 111 13q54 18 100 68v200zM618 0h-139v46q-58 -40 -139 -53q-81 -14 -156 4q-79 19 -127 69q-54 56 -57 140q-6 175 130 251q133 73 346 24q13 81 -31 145q-87 127 -370 42q-9 43 -26 99q310 87 455 -19
q114 -82 114 -266v-482z" />
    <glyph glyph-name="ae" unicode="&#xe6;" horiz-adv-x="1268" 
d="M623 452q0 107 66 173q59 60 144 62q86 3 144 -55q66 -65 66 -180h-420zM478 177q-46 -49 -101 -67q-41 -13 -110 -13q-59 0 -102 30q-50 36 -49 99q2 113 105 150q94 34 257 1v-200zM567 679q-57 90 -173 116q-135 30 -345 -28q17 -56 26 -99q281 85 368 -42
q44 -64 31 -144q-212 49 -344 -24q-136 -75 -130 -249q3 -84 57 -140q47 -50 127 -69q74 -18 154 -4q81 13 140 53q48 39 98 34q24 -2 39 -11q170 -128 474 -52l-18 59q-11 41 -19 58q-66 -26 -142 -26q-76 1 -141 27q-68 28 -107 79q-43 56 -42 133h542q26 223 -64 342
q-83 111 -249 111q-182 0 -282 -124z" />
    <glyph glyph-name="ccedilla" unicode="&#xe7;" horiz-adv-x="702" 
d="M561 6l-31 -6q-52 -10 -103 -10q-182 0 -305 115q-122 116 -122 288q0 195 115 305t318 110q41 0 84 -4l30 -3l-7 -29q-10 -38 -15 -77l-3 -26l-25 3q-28 3 -54 3q-134 0 -211 -75q-78 -75 -78 -204q0 -123 79 -197q78 -74 210 -74q25 0 52 3l21 3l11 -34l22 -62z
M315 -405q-50 25 -87 69l85 72q29 -35 67 -48q33 -11 61 -1q34 12 36 50q1 39 -25 58q-16 12 -41 15l-50 5v50v134h111v-90q51 -19 81 -59q37 -49 35 -117q-2 -53 -31 -93q-30 -41 -79 -58q-30 -11 -63 -11q-51 0 -100 24z" />
    <glyph glyph-name="egrave" unicode="&#xe8;" horiz-adv-x="797" 
d="M522 956l35 76l-372 198l-59 -127zM562 451q0 115 -66 180q-59 58 -144 56q-85 -3 -145 -62q-65 -67 -65 -174h420zM590 78q14 -47 18 -59q-273 -69 -437 26q-171 99 -171 354q0 200 110 307q99 97 258 97q166 0 249 -112q90 -119 64 -342h-543q0 -77 43 -133
q38 -51 107 -79q64 -27 141 -27q76 0 142 26q7 -18 19 -58z" />
    <glyph glyph-name="eacute" unicode="&#xe9;" horiz-adv-x="797" 
d="M161 986l-36 77l372 197l60 -127zM562 451q0 115 -66 180q-59 58 -144 56q-85 -3 -145 -62q-65 -67 -65 -174h420zM590 78q14 -47 18 -59q-273 -69 -437 26q-171 99 -171 354q0 200 110 307q99 97 258 97q166 0 249 -112q90 -119 64 -342h-543q0 -77 43 -133
q38 -51 107 -79q64 -27 141 -27q76 0 142 26q7 -18 19 -58z" />
    <glyph glyph-name="ecircumflex" unicode="&#xea;" horiz-adv-x="833" 
d="M355 1177l-277 -276h163l114 113l113 -113h163zM562 451q0 115 -66 180q-59 58 -144 56q-85 -3 -145 -62q-65 -67 -65 -174h420zM590 78q14 -47 18 -59q-273 -69 -437 26q-171 99 -171 354q0 200 110 307q99 97 258 97q166 0 249 -112q90 -119 64 -342h-543
q0 -77 43 -133q38 -51 107 -79q64 -27 141 -27q76 0 142 26q7 -18 19 -58z" />
    <glyph glyph-name="edieresis" unicode="&#xeb;" horiz-adv-x="797" 
d="M189 931q-25 -25 -60 -25q-36 0 -61 25t-25 60q0 34 25 59t61 25q35 0 60 -25t25 -59q0 -35 -25 -60zM618 931q-25 -25 -61 -25q-35 0 -60 25t-25 60q0 34 25 59t60 25q36 0 61 -25t25 -59q0 -35 -25 -60zM562 451q0 115 -66 180q-59 58 -144 56q-85 -3 -145 -62
q-65 -67 -65 -174h420zM590 78q14 -47 18 -59q-273 -69 -437 26q-171 99 -171 354q0 200 110 307q99 97 258 97q166 0 249 -112q90 -119 64 -342h-543q0 -77 43 -133q38 -51 107 -79q64 -27 141 -27q76 0 142 26q7 -18 19 -58z" />
    <glyph glyph-name="igrave" unicode="&#xec;" horiz-adv-x="399" 
d="M18 804h146v-804h-146v804zM225 956l35 76l-372 198l-59 -127z" />
    <glyph glyph-name="iacute" unicode="&#xed;" horiz-adv-x="403" 
d="M19 804h146v-804h-146v804zM14 986l-36 77l372 197l60 -127z" />
    <glyph glyph-name="icircumflex" unicode="&#xee;" horiz-adv-x="400" 
d="M19 804h146v-804h-146v804zM100 1177l-277 -276h163l114 113l113 -113h163z" />
    <glyph glyph-name="idieresis" unicode="&#xef;" horiz-adv-x="402" 
d="M-52 931q-25 -25 -60 -25q-36 0 -61 25t-25 60q0 34 25 59t61 25q35 0 60 -25t25 -59q0 -35 -25 -60zM377 931q-25 -25 -61 -25q-35 0 -60 25t-25 60q0 34 25 59t60 25q36 0 61 -25t25 -59q0 -35 -25 -60zM28 0h148v799h-148v-799z" />
    <glyph glyph-name="eth" unicode="&#xf0;" horiz-adv-x="853" 
d="M240 160q-71 72 -98 194q-26 121 7 217q37 106 134 128q98 23 177 -58q71 -72 99 -193t-5 -216q-37 -107 -136 -129q-100 -23 -178 57zM627 707q-41 91 -101 173q-52 68 -120 131l84 76l-56 61l-92 -83q-53 42 -110 77l-53 -84q43 -29 85 -64l-75 -68l56 -62l82 75
q62 -60 107 -125q2 -3 5 -7q3 -5 4 -7q-44 12 -92 12q-164 0 -262 -128q-88 -116 -89 -283t86 -283q97 -128 264 -128q204 0 299 185q87 169 33 364q-20 89 -55 168z" />
    <glyph glyph-name="ntilde" unicode="&#xf1;" horiz-adv-x="842" 
d="M122 946q17 42 54 73q48 42 112 42q59 0 120 -28q37 -16 69 -16q47 0 66 47l104 -40q-17 -43 -55 -75q-49 -43 -115 -43q-55 0 -114 26q-39 18 -75 18q-44 0 -63 -45zM0 799h146v-100q31 60 121 91q91 32 186 13q107 -21 172 -102q75 -93 75 -252v-449h-146v444
q0 110 -64 173q-57 56 -140 54q-83 -1 -140 -59q-64 -64 -64 -169v-443h-146v799z" />
    <glyph glyph-name="ograve" unicode="&#xf2;" horiz-adv-x="853" 
d="M522 956l35 76l-372 198l-59 -127zM196 205q-51 81 -50 198q0 117 51 199q56 90 151 90q94 0 151 -90q51 -81 51 -198q1 -118 -50 -199q-56 -90 -152 -90t-152 90zM89 688q-88 -117 -89 -284q-1 -169 85 -285q96 -129 262 -129t263 129q87 116 86 285q-1 167 -88 284
q-97 129 -259 129q-163 0 -260 -129z" />
    <glyph glyph-name="oacute" unicode="&#xf3;" horiz-adv-x="853" 
d="M161 986l-36 77l372 197l60 -127zM196 205q-51 81 -50 198q0 117 51 199q56 90 151 90q94 0 151 -90q51 -81 51 -198q1 -118 -50 -199q-56 -90 -152 -90t-152 90zM89 688q-88 -117 -89 -284q-1 -169 85 -285q96 -129 262 -129t263 129q87 116 86 285q-1 167 -88 284
q-97 129 -259 129q-163 0 -260 -129z" />
    <glyph glyph-name="ocircumflex" unicode="&#xf4;" horiz-adv-x="853" 
d="M365 1177l-277 -276h163l114 113l113 -113h163zM196 205q-51 81 -50 198q0 117 51 199q56 90 151 90q94 0 151 -90q51 -81 51 -198q1 -118 -50 -199q-56 -90 -152 -90t-152 90zM89 688q-88 -117 -89 -284q-1 -169 85 -285q96 -129 262 -129t263 129q87 116 86 285
q-1 167 -88 284q-97 129 -259 129q-163 0 -260 -129z" />
    <glyph glyph-name="otilde" unicode="&#xf5;" horiz-adv-x="853" 
d="M93 946q17 42 54 73q48 42 112 42q59 0 120 -28q37 -16 69 -16q47 0 66 47l104 -40q-17 -43 -55 -75q-49 -43 -115 -43q-55 0 -114 26q-39 18 -75 18q-44 0 -63 -45zM196 205q-51 81 -50 198q0 117 51 199q56 90 151 90q94 0 151 -90q51 -81 51 -198q1 -118 -50 -199
q-56 -90 -152 -90t-152 90zM89 688q-88 -117 -89 -284q-1 -169 85 -285q96 -129 262 -129t263 129q87 116 86 285q-1 167 -88 284q-97 129 -259 129q-163 0 -260 -129z" />
    <glyph glyph-name="odieresis" unicode="&#xf6;" horiz-adv-x="853" 
d="M207 931q-25 -25 -60 -25q-36 0 -61 25t-25 60q0 34 25 59t61 25q35 0 60 -25t25 -59q0 -35 -25 -60zM636 931q-25 -25 -61 -25q-35 0 -60 25t-25 60q0 34 25 59t60 25q36 0 61 -25t25 -59q0 -35 -25 -60zM196 205q-51 81 -50 198q0 117 51 199q56 90 151 90
q94 0 151 -90q51 -81 51 -198q1 -118 -50 -199q-56 -90 -152 -90t-152 90zM89 688q-88 -117 -89 -284q-1 -169 85 -285q96 -129 262 -129t263 129q87 116 86 285q-1 167 -88 284q-97 129 -259 129q-163 0 -260 -129z" />
    <glyph glyph-name="divide" unicode="&#xf7;" horiz-adv-x="997" 
d="M4 503h831v125h-831v-125zM503 814h-167v166h167v-166zM336 149h167v166h-167v-166z" />
    <glyph glyph-name="oslash" unicode="&#xf8;" horiz-adv-x="781" 
d="M256 140l276 408q52 -141 3 -284q-23 -70 -68 -109q-48 -44 -115 -45q-54 0 -96 30zM451 663l-278 -409q-53 140 -3 285q24 70 68 111q49 44 114 45q55 0 99 -32zM704 802h-160l-19 -28q-76 47 -172 47q-123 0 -212 -76q-80 -69 -117 -185q-34 -111 -20 -230
q16 -122 78 -210l-81 -121h159l20 30q76 -45 172 -45q125 0 213 75q80 68 116 184q34 110 19 228q-16 122 -78 210z" />
    <glyph glyph-name="ugrave" unicode="&#xf9;" horiz-adv-x="886" 
d="M522 956l35 76l-372 198l-59 -127zM703 -1h-146v101q-31 -60 -121 -91q-92 -32 -188 -14q-108 22 -172 102q-76 94 -76 253v449h146v-445q0 -110 64 -172q58 -57 141 -55q84 2 142 60q64 63 64 169v443h146v-800z" />
    <glyph glyph-name="uacute" unicode="&#xfa;" horiz-adv-x="871" 
d="M161 986l-36 77l372 197l60 -127zM703 -1h-146v101q-31 -60 -121 -91q-92 -32 -188 -14q-108 22 -172 102q-76 94 -76 253v449h146v-445q0 -110 64 -172q58 -57 141 -55q84 2 142 60q64 63 64 169v443h146v-800z" />
    <glyph glyph-name="ucircumflex" unicode="&#xfb;" horiz-adv-x="892" 
d="M355 1177l-277 -276h163l114 113l113 -113h163zM703 -1h-146v101q-31 -60 -121 -91q-92 -32 -188 -14q-108 22 -172 102q-76 94 -76 253v449h146v-445q0 -110 64 -172q58 -57 141 -55q84 2 142 60q64 63 64 169v443h146v-800z" />
    <glyph glyph-name="udieresis" unicode="&#xfc;" horiz-adv-x="830" 
d="M186 931q-25 -25 -60 -25q-36 0 -61 25t-25 60q0 34 25 59t61 25q35 0 60 -25t25 -59q0 -35 -25 -60zM615 931q-25 -25 -61 -25q-35 0 -60 25t-25 60q0 34 25 59t60 25q36 0 61 -25t25 -59q0 -35 -25 -60zM703 -1h-146v101q-31 -60 -121 -91q-92 -32 -188 -14
q-108 22 -172 102q-76 94 -76 253v449h146v-445q0 -110 64 -172q58 -57 141 -55q84 2 142 60q64 63 64 169v443h146v-800z" />
    <glyph glyph-name="yacute" unicode="&#xfd;" horiz-adv-x="804" 
d="M161 986l-36 77l372 197l60 -127zM622 800l-223 -593l-244 593h-155l322 -793l-63 -161q-29 -69 -69 -97q-49 -33 -142 -33v-140q129 0 211 52t129 164q47 111 384 1008h-150z" />
    <glyph glyph-name="thorn" unicode="&#xfe;" horiz-adv-x="738" 
d="M147 675q151 -13 247 -105q84 -79 84 -166q0 -86 -84 -167q-97 -93 -247 -105v543zM493 653q-129 132 -346 148v227h-147v-1450h147v427q216 16 346 150q111 114 111 249q0 136 -111 249z" />
    <glyph glyph-name="ydieresis" unicode="&#xff;" horiz-adv-x="804" 
d="M216 931q-25 -25 -60 -25q-36 0 -61 25t-25 60q0 34 25 59t61 25q35 0 60 -25t25 -59q0 -35 -25 -60zM645 931q-25 -25 -61 -25q-35 0 -60 25t-25 60q0 34 25 59t60 25q36 0 61 -25t25 -59q0 -35 -25 -60zM622 800l-223 -593l-244 593h-155l322 -793l-63 -161
q-29 -69 -69 -97q-49 -33 -142 -33v-140q129 0 211 52t129 164q47 111 384 1008h-150z" />
    <glyph glyph-name="dotlessi" unicode="&#x131;" horiz-adv-x="514" 
d="M285 923l-285 -121l48 -106l237 76v-772h156v923h-156z" />
    <glyph glyph-name="circumflex" unicode="&#x2c6;" horiz-adv-x="697" 
d="M325 1614l-277 -276h163l114 113l113 -113h163z" />
    <glyph glyph-name="caron" unicode="&#x2c7;" horiz-adv-x="697" 
d="M319 1330l276 277l-163 -1l-114 -114l-114 114l-162 -1z" />
    <glyph glyph-name="uni02C9" unicode="&#x2c9;" horiz-adv-x="1024" 
d="M254 1246v106h516v-106h-516z" />
    <glyph glyph-name="breve" unicode="&#x2d8;" horiz-adv-x="1024" 
d="M286 1348q76 -63 116 -85q59 -34 112 -34q52 -1 111 33q30 18 56 39q7 5 28 22l25 23l75 -47q-9 -20 -22 -40q-9 -15 -25 -37q-31 -38 -65 -64q-39 -31 -83 -48q-49 -18 -101 -18q-51 1 -100 20q-44 18 -82 49q-69 56 -109 137z" />
    <glyph glyph-name="dotaccent" unicode="&#x2d9;" horiz-adv-x="1024" 
d="M397 1199h200v200h-200v-200z" />
    <glyph glyph-name="ring" unicode="&#x2da;" horiz-adv-x="1024" 
d="M415 1246q0 -47 32.5 -79t80.5 -32q47 0 80 32t33 79q0 44 -33.5 76.5t-79.5 32.5q-47 0 -80 -32.5t-33 -76.5zM329 1246q0 83 57.5 139.5t141.5 56.5q86 0 144 -57t58 -139q0 -84 -58 -141t-144 -57q-84 0 -141.5 57t-57.5 141z" />
    <glyph glyph-name="ogonek" unicode="&#x2db;" horiz-adv-x="1024" 
d="M333 -397q-71 65 -41 229q18 100 66 212l101 -43q-42 -97 -59 -193q-18 -101 7 -123q11 -11 49 -3q49 10 123 51l53 -96q-122 -68 -202 -68q-59 0 -97 34z" />
    <glyph glyph-name="tilde" unicode="&#x2dc;" horiz-adv-x="793" 
d="M95 1384q17 42 54 73q48 42 112 42q59 0 120 -28q37 -16 69 -16q47 0 66 47l104 -40q-17 -43 -55 -75q-49 -43 -115 -43q-55 0 -114 26q-39 18 -75 18q-44 0 -63 -45z" />
    <glyph glyph-name="hungarumlaut" unicode="&#x2dd;" horiz-adv-x="696" 
d="M189 1201l-88 -402h92l128 402h-132zM445 1201l-88 -402h90l129 402h-131z" />
    <glyph glyph-name="endash" unicode="&#x2013;" horiz-adv-x="1100" 
d="M0 379h1097v127h-1097v-127z" />
    <glyph glyph-name="emdash" unicode="&#x2014;" horiz-adv-x="1699" 
d="M0 379h1702v127h-1702v-127z" />
    <glyph glyph-name="quoteleft" unicode="&#x2018;" horiz-adv-x="503" 
d="M340 799q-57 117 -80 193q-30 102 -25 207q-36 1 -134 1q15 -219 138 -401h101z" />
    <glyph glyph-name="quoteright" unicode="&#x2019;" horiz-adv-x="494" 
d="M98 799q57 117 80 193q30 102 25 208q36 0 135 1q-15 -220 -138 -402h-102z" />
    <glyph glyph-name="quotesinglbase" unicode="&#x201a;" horiz-adv-x="399" 
d="M2 -219q58 117 80 194q30 102 26 208q36 0 134 1q-15 -220 -138 -403h-102z" />
    <glyph glyph-name="quotedblleft" unicode="&#x201c;" horiz-adv-x="699" 
d="M340 799q-57 117 -80 193q-30 102 -25 207q-36 1 -134 1q15 -219 138 -401h101zM596 799q-57 117 -80 193q-30 102 -25 207q-36 1 -134 1q15 -219 138 -401h101z" />
    <glyph glyph-name="quotedblright" unicode="&#x201d;" horiz-adv-x="687" 
d="M98 799q57 117 80 193q30 102 25 208q36 0 135 1q-15 -220 -138 -402h-102zM346 799q57 117 80 193q30 102 25 208q36 0 135 1q-15 -220 -138 -402h-102z" />
    <glyph glyph-name="quotedblbase" unicode="&#x201e;" horiz-adv-x="616" 
d="M243 -218q57 117 80 192q30 103 25 208q36 0 134 1q-15 -219 -138 -401h-101zM7 -218q57 117 80 192q30 103 25 208q36 0 134 1q-15 -219 -137 -401h-102z" />
    <glyph glyph-name="dagger" unicode="&#x2020;" horiz-adv-x="700" 
d="M225 1171v-270h-225v-111h225v-790h111v790h225v111h-225v270h-111z" />
    <glyph glyph-name="daggerdbl" unicode="&#x2021;" horiz-adv-x="796" 
d="M225 1171v-270h-225v-111h225v-428h-225v-111h225v-251h111v251h225v111h-225v428h225v111h-225v270h-111z" />
    <glyph glyph-name="bullet" unicode="&#x2022;" horiz-adv-x="901" 
d="M635 476q-74 -74 -179 -74q-104 0 -178 74t-74 179q0 104 74 178t178 74q105 0 179 -74t74 -178q0 -105 -74 -179z" />
    <glyph glyph-name="ellipsis" unicode="&#x2026;" horiz-adv-x="1599" 
d="M0 0h200v200h-200v-200zM599 0h200v200h-200v-200zM599 0h200v200h-200v-200zM1196 0h200v200h-200v-200z" />
    <glyph glyph-name="guilsinglleft" unicode="&#x2039;" horiz-adv-x="501" 
d="M272 798l-272 -403l267 -395h136l-267 395l272 403h-136z" />
    <glyph glyph-name="guilsinglright" unicode="&#x203a;" horiz-adv-x="558" 
d="M0 798l272 -403l-267 -395h136l267 395l-272 403h-136z" />
    <glyph glyph-name="fraction" unicode="&#x2044;" horiz-adv-x="597" 
d="M455 1174l-455 -1174h133l455 1174h-133z" />
    <glyph glyph-name="fraction" unicode="&#x2215;" horiz-adv-x="597" 
d="M455 1174l-455 -1174h133l455 1174h-133z" />
    <glyph glyph-name="franc" unicode="&#x20a3;" horiz-adv-x="895" 
d="M155 1178v-900h-155v-97h155v-181h154v181h165v97h-165v200l427 1v126h-427v445h484v128h-638z" />
    <glyph glyph-name="lira" unicode="&#x20a4;" 
d="M719 197q-115 -67 -187 -77q-45 -6 -123 14q-91 23 -158 23q99 112 93 240h142v92h-158q-16 51 -49 116h207v92h-256q-29 57 -37 90q-27 115 29 186q36 46 99 67q95 32 190 -2q103 -37 145 -134l108 48q-62 140 -209 195q-137 50 -271 5q-126 -42 -182 -148
q-56 -107 -24 -244q7 -29 21 -63h-99v-92h145q1 -1 2 -4q1 -2 2 -3q39 -73 54 -109h-203v-92h226q9 -145 -213 -280l47 -107q170 47 321 9q76 -19 120 -19q114 0 277 94z" />
    <glyph glyph-name="peseta" unicode="&#x20a7;" horiz-adv-x="1746" 
d="M1150 108q-39 -2 -65 -2q-127 0 -172 101q-31 70 -31 234v219h191q-12 -36 -12 -73q0 -82 62 -141q46 -43 142 -85q64 -28 90 -50q36 -31 36 -76q0 -59 -35 -88q-43 -35 -152 -37q-18 -1 -54 -2zM137 1041q102 22 203 5q202 -33 198 -229q-4 -160 -201 -206
q-116 -27 -200 -13v443zM1474 382q-42 45 -142 89q-75 32 -104 57q-34 29 -34 70q0 80 109 80q68 0 141 -24l19 -6l38 113l-18 7q-100 35 -182 35q-37 0 -72 -8h-347v190h-135v-190h-71q2 15 2 27q0 231 -181 310q-162 71 -481 24h-16v-1137h137v434q173 0 301 53
q135 55 196 159v-5h113v-271q0 -186 62 -275q79 -114 276 -114l199 5q2 1 6 1h3q93 3 151 46q81 60 81 190q0 86 -51 140z" />
    <glyph glyph-name="Euro" unicode="&#x20ac;" horiz-adv-x="948" 
d="M544 186q-133 65 -194 192h272v95h-305q-12 54 -12 111q0 37 5 75h312v95h-291q51 156 190 234q145 81 354 58q5 49 23 124q-311 32 -505 -95q-169 -111 -223 -321h-127v-95h109q-4 -41 -4 -81q0 -53 7 -105h-112v-95h134q67 -213 267 -311q199 -99 470 -52
q-15 37 -42 118q-189 -15 -328 53z" />
    <glyph glyph-name="uni2116" unicode="&#x2116;" horiz-adv-x="1897" 
d="M682 1173v-943l-527 943h-155v-1172h132l-1 955l542 -955h141v1172h-132zM1158 342q-71 72 -98 194q-27 121 7 217q37 107 134 129q98 22 177 -58q71 -72 99 -193q28 -122 -5 -217q-37 -107 -136 -129q-99 -23 -178 57zM1007 866q-88 -116 -89 -283t86 -283
q97 -128 264 -128t264 128q88 116 87 283q0 167 -88 283q-98 129 -262 129t-262 -129zM1619 0h-701v112l701 -1v-111z" />
    <glyph glyph-name="trademark" unicode="&#x2122;" horiz-adv-x="1497" 
d="M1240 1292l-195 -649l-204 649h-165l-55 -791h103l44 689l216 -689h117l203 689l56 -689h104l-63 791h-161zM1 1299v-92h233v-700h100v700h233v92h-566z" />
    <glyph glyph-name="partialdiff" unicode="&#x2202;" 
 />
    <glyph glyph-name="Delta" unicode="&#x2206;" horiz-adv-x="1081" 
 />
    <glyph glyph-name="product" unicode="&#x220f;" horiz-adv-x="1515" 
 />
    <glyph glyph-name="summation" unicode="&#x2211;" horiz-adv-x="1206" 
 />
    <glyph glyph-name="minus" unicode="&#x2212;" horiz-adv-x="997" 
d="M4 503h831v125h-831v-125z" />
    <glyph glyph-name="radical" unicode="&#x221a;" 
 />
    <glyph glyph-name="infinity" unicode="&#x221e;" 
 />
    <glyph glyph-name="integral" unicode="&#x222b;" horiz-adv-x="665" 
 />
    <glyph glyph-name="approxequal" unicode="&#x2248;" 
 />
    <glyph glyph-name="lessequal" unicode="&#x2264;" 
 />
    <glyph glyph-name="greaterequal" unicode="&#x2265;" 
 />
    <glyph glyph-name="uniF001" unicode="&#xf001;" horiz-adv-x="1073" 
 />
    <glyph glyph-name="uniF001" unicode="&#xfb01;" horiz-adv-x="1073" 
 />
    <glyph glyph-name="uniF002" unicode="&#xf002;" horiz-adv-x="1081" 
 />
    <glyph glyph-name="uniF002" unicode="&#xfb02;" horiz-adv-x="1081" 
 />
    </font>
</defs>
</svg>
